<?xml version="1.0" standalone="no"?>
<!DOCTYPE svg PUBLIC "-//W3C//DTD SVG 20010904//EN"
 "http://www.w3.org/TR/2001/REC-SVG-20010904/DTD/svg10.dtd">
<svg version="1.0" xmlns="http://www.w3.org/2000/svg"
 width="350.000000pt" height="350.000000pt" viewBox="0 0 350.000000 350.000000"
 preserveAspectRatio="xMidYMid meet">
<metadata>
Created by potrace 1.11, written by Peter Selinger 2001-2013
</metadata>
<g transform="translate(0.000000,350.000000) scale(0.100000,-0.100000)"
fill="#000000" stroke="none">
<path d="M20 2415 l0 -315 275 0 275 0 0 315 0 315 -275 0 -275 0 0 -315z"/>
<path d="M1180 2415 l0 -315 275 0 275 0 0 315 0 315 -275 0 -275 0 0 -315z"/>
<path d="M1760 2413 l0 -313 275 0 c213 0 275 3 275 13 -1 34 -22 156 -31 182
-16 41 -81 177 -94 193 -36 47 -117 124 -155 148 -86 55 -132 73 -212 83 l-58
7 0 -313z"/>
<path d="M2830 2720 c-30 -4 -64 -10 -75 -14 -91 -35 -189 -100 -243 -162 -59
-69 -59 -68 -66 -92 -4 -12 -11 -22 -15 -22 -25 0 -91 -226 -91 -312 0 -17 20
-18 275 -18 l275 0 0 315 c0 173 -1 314 -2 314 -2 -1 -28 -5 -58 -9z"/>
<path d="M2920 2415 l0 -315 275 0 275 0 0 315 0 315 -275 0 -275 0 0 -315z"/>
<path d="M600 1745 l0 -315 275 0 275 0 0 315 0 315 -275 0 -275 0 0 -315z"/>
<path d="M1760 1745 l0 -315 275 0 275 0 0 315 0 315 -275 0 -275 0 0 -315z"/>
<path d="M2340 1745 l0 -315 275 0 275 0 0 315 0 315 -275 0 -275 0 0 -315z"/>
<path d="M1180 1085 l0 -315 275 0 275 0 0 315 0 315 -275 0 -275 0 0 -315z"/>
<path d="M1760 1084 l0 -316 53 7 c66 8 112 23 159 52 21 13 42 23 48 23 5 0
10 5 10 10 0 6 4 10 10 10 17 0 65 44 119 110 11 14 25 30 30 36 5 6 12 20 15
32 4 12 11 22 15 22 25 0 89 224 91 318 0 9 -62 12 -275 12 l-275 0 0 -316z"/>
<path d="M2340 1377 c0 -35 20 -136 38 -192 29 -93 110 -220 175 -275 10 -8
31 -25 45 -37 15 -13 31 -23 35 -23 5 0 21 -9 36 -20 36 -25 101 -46 169 -55
l52 -7 0 316 0 316 -275 0 -275 0 0 -23z"/>
<path d="M2920 1085 l0 -315 275 0 275 0 0 315 0 315 -275 0 -275 0 0 -315z"/>
</g>
</svg>
